<svg width="24" height="23" viewBox="0 0 24 23" fill="none" xmlns="http://www.w3.org/2000/svg">
<path d="M11.0769 0C10.0569 0 9.23077 0.826154 9.23077 1.84615V3.69231H14.7692V1.84615C14.7692 0.826154 13.9431 0 12.9231 0H11.0769ZM14.7692 3.69231V4.61538C14.7692 5.63538 13.9431 6.46154 12.9231 6.46154H11.0769C10.0569 6.46154 9.23077 5.63538 9.23077 4.61538V3.69231H1.84615C0.826154 3.69231 0 4.51846 0 5.53846V20.3077C0 21.3277 0.826154 22.1538 1.84615 22.1538H22.1538C23.1738 22.1538 24 21.3277 24 20.3077V5.53846C24 4.51846 23.1738 3.69231 22.1538 3.69231H14.7692ZM7.38462 8.30769C8.26523 8.30769 8.53846 8.93329 8.53846 8.93329C9.32585 8.93329 9.69231 9.7948 9.69231 10.8065C9.69231 11.3114 9.48858 11.7296 9.48858 11.7296C9.56981 11.7803 9.70571 11.9419 9.67248 12.229C9.60971 12.7634 9.39531 12.8994 9.25962 12.9105C9.20792 13.4089 8.7138 14.0477 8.54026 14.14V14.9748C8.8855 16.0981 10.571 15.5474 11.0787 17.5385H3.69231C4.2 15.5474 5.88554 16.0981 6.23077 14.9748V14.14C6.05723 14.0477 5.56311 13.4089 5.51142 12.9105C5.37573 12.8994 5.16133 12.7634 5.09856 12.229C5.0644 11.9419 5.1985 11.7803 5.28065 11.7296C5.28065 11.7296 5.07873 11.2671 5.07873 10.8065C5.0778 9.44034 5.75354 8.30769 7.38462 8.30769ZM13.8462 12H19.3846C19.8942 12 20.3077 12.4135 20.3077 12.9231C20.3077 13.4326 19.8942 13.8462 19.3846 13.8462H13.8462C13.3366 13.8462 12.9231 13.4326 12.9231 12.9231C12.9231 12.4135 13.3366 12 13.8462 12ZM13.8462 15.6923H19.3846C19.8942 15.6923 20.3077 16.1058 20.3077 16.6154C20.3077 17.1249 19.8942 17.5385 19.3846 17.5385H13.8462C13.3366 17.5385 12.9231 17.1249 12.9231 16.6154C12.9231 16.1058 13.3366 15.6923 13.8462 15.6923Z" fill="white"/>
</svg>
